<?xml version="1.0" encoding="utf-8" ?><svg xmlns="http://www.w3.org/2000/svg" xmlns:xlink="http://www.w3.org/1999/xlink" width="1816" height="1256" viewBox="0 0 1816 1256"><path transform="scale(9.65957 9.65957)" d="M93.8399 19.4153C98.5998 19.6192 103.938 19.3862 108.838 19.5126C110.56 20.8948 131.269 18.9658 131.95 20.2669C132.179 20.7049 132.239 21.7692 132.297 22.3006C132.523 24.3598 133.101 29.7252 131.724 31.3928C131.412 31.7705 130.803 31.821 130.344 31.9395C123.7 32.2165 113.6 32.0274 106.863 31.9234C106.884 35.7889 106.847 39.6545 106.751 43.5188C108.91 43.0627 110.942 42.7021 113.139 42.5466C143.343 40.3933 155.529 80.8508 132.181 98.0405C125.746 102.779 120.37 103.543 112.638 104.039C112.975 101.656 112.812 94.7444 112.809 91.9604C117.737 90.9684 120.75 90.1256 124.527 86.647C135.102 76.9065 129.718 57.2665 114.89 55.9317C110.9 55.5725 106.249 55.7703 102.717 57.7859C96.6645 61.1894 95.504 66.1358 93.7731 72.3073C93.6789 69.2323 93.8709 65.0551 93.8849 61.8374L93.925 35.2525C93.9291 30.2115 94.0684 24.3612 93.8399 19.4153Z"/><path transform="scale(9.65957 9.65957)" d="M39.0978 19.4063C41.949 19.569 45.5848 19.423 48.5825 19.5005C49.3708 19.768 50.5657 19.9733 50.9553 20.4355C51.6244 24.8773 51.4129 31.3271 51.3896 35.9443L51.3585 56.5146L51.4228 84.6422C51.4255 90.2807 51.6089 96.875 51.0378 102.357C49.8731 102.615 40.7993 102.604 39.9854 102.114C39.6601 101.311 39.4415 100.456 39.1213 99.7132L39.0978 19.4063Z"/><path fill="#EE2C31" transform="scale(9.65957 9.65957)" d="M74.1046 77.0785C81.5079 75.8834 88.4879 80.8872 89.7334 88.2822C90.9788 95.6771 86.0226 102.691 78.6363 103.987C71.1786 105.295 64.0819 100.28 62.8244 92.814C61.567 85.3475 66.6297 78.2851 74.1046 77.0785Z"/><path transform="scale(9.65957 9.65957)" d="M178.92 49.5554C175.756 50.7441 170.928 50.3581 167.644 49.2981C154.549 45.0845 153.713 25.734 165.904 19.9273C170.649 17.6676 176.074 18.1965 180.861 19.9266C179.198 22.32 182.352 24.5374 178.141 24.4433C174.463 23.9302 171.024 23.5623 167.833 25.9326C163.312 29.2902 162.712 36.6194 166.093 40.9581C168.771 44.3949 172.664 44.9381 176.723 44.5339C178.263 44.6146 179.036 44.4606 180.433 44.4491C180.412 45.6907 180.493 47.0184 179.931 48.1185C179.268 48.6105 179.044 48.7219 178.92 49.5554Z"/><path transform="scale(9.65957 9.65957)" d="M145.62 18.9837C148.133 18.4465 150.74 19.3027 152.445 21.2249C154.15 23.147 154.689 25.8378 153.856 28.2683C153.022 30.6987 150.946 32.4929 148.42 32.9647C144.585 33.6812 140.886 31.1818 140.12 27.3561C139.354 23.5304 141.805 19.7994 145.62 18.9837ZM148.359 28.8949C149.984 28.2721 150.819 26.469 150.242 24.8269C149.664 23.1849 147.885 22.3004 146.228 22.8315C145.114 23.1885 144.281 24.1226 144.055 25.2704C143.828 26.4181 144.243 27.5983 145.138 28.3519C146.033 29.1055 147.267 29.3134 148.359 28.8949Z"/><path transform="scale(9.65957 9.65957)" d="M48.5825 19.5005L52.8033 19.4949C52.5177 36.0658 52.7828 53.5283 52.785 70.175L52.7924 91.4317C52.7901 94.9988 52.6605 99.652 52.8285 103.128C49.9685 103.108 41.5076 102.876 39.0667 103.23L39.1213 99.7132C39.4415 100.456 39.6601 101.311 39.9854 102.114C40.7993 102.604 49.8731 102.615 51.0378 102.357C51.6089 96.875 51.4255 90.2807 51.4228 84.6422L51.3585 56.5146L51.3896 35.9443C51.4129 31.3271 51.6244 24.8773 50.9553 20.4355C50.5657 19.9733 49.3708 19.768 48.5825 19.5005Z"/><path transform="scale(9.65957 9.65957)" d="M108.838 19.5126C116.496 19.1599 126.186 19.4466 134.025 19.4723C133.985 23.6429 133.968 27.8137 133.976 31.9845L130.344 31.9395C130.803 31.821 131.412 31.7705 131.724 31.3928C133.101 29.7252 132.523 24.3598 132.297 22.3006C132.239 21.7692 132.179 20.7049 131.95 20.2669C131.269 18.9658 110.56 20.8948 108.838 19.5126Z"/><path transform="scale(9.65957 9.65957)" d="M176.723 44.5339C179.068 43.9038 179.797 43.4134 181.911 42.1908C181.573 45.7779 182.795 48.32 178.92 49.5554C179.044 48.7219 179.268 48.6105 179.931 48.1185C180.493 47.0184 180.412 45.6907 180.433 44.4491C179.036 44.4606 178.263 44.6146 176.723 44.5339Z"/><defs><linearGradient id="gradient_0" gradientUnits="userSpaceOnUse" x1="180.02074" y1="22.94347" x2="181.4173" y2="22.572969"><stop offset="0" stop-color="black" stop-opacity="0.91764706"/><stop offset="1" stop-color="black" stop-opacity="0.96078432"/></linearGradient></defs><path fill="url(#gradient_0)" transform="scale(9.65957 9.65957)" d="M180.861 19.9266C182.16 21.1983 181.694 24.384 181.891 26.3343C180.704 25.7203 179.349 24.9759 178.141 24.4433C182.352 24.5374 179.198 22.32 180.861 19.9266Z"/></svg>